<?xml version="1.0" standalone="no"?>
<!DOCTYPE svg PUBLIC "-//W3C//DTD SVG 20010904//EN"
 "http://www.w3.org/TR/2001/REC-SVG-20010904/DTD/svg10.dtd">
<svg version="1.0" xmlns="http://www.w3.org/2000/svg"
 width="1144.000000pt" height="1144.000000pt" viewBox="0 0 1144.000000 1144.000000"
 preserveAspectRatio="xMidYMid meet">
<metadata>
Created by potrace 1.14, written by Peter Selinger 2001-2017
</metadata>
<g transform="translate(0.000000,1144.000000) scale(0.100000,-0.100000)"
fill="#000000" stroke="none">
<path d="M5658 10254 c-2 -1 -16 -5 -33 -7 -16 -3 -48 -11 -70 -18 -22 -7 -42
-13 -45 -14 -24 -6 -90 -41 -90 -48 0 -4 -4 -6 -8 -3 -5 3 -24 -8 -43 -24 -19
-16 -38 -29 -42 -30 -14 0 -160 -152 -194 -201 -54 -78 -102 -173 -118 -239
-6 -20 -19 -141 -19 -165 1 -54 15 -149 25 -167 5 -10 8 -18 5 -18 -3 0 2 -17
11 -37 8 -21 15 -38 13 -38 -4 0 23 -65 52 -122 17 -35 35 -63 40 -63 4 0 8
-6 8 -12 0 -20 88 -116 151 -163 31 -24 92 -63 135 -85 44 -23 85 -47 92 -53
17 -13 11 -48 -19 -114 -27 -60 -40 -91 -74 -173 -15 -36 -35 -83 -46 -105
-18 -40 -51 -116 -54 -125 -1 -3 -6 -16 -12 -30 -6 -14 -23 -54 -37 -90 -15
-36 -38 -87 -51 -115 -13 -27 -38 -86 -56 -130 -17 -44 -36 -84 -40 -89 -5 -6
-9 -15 -9 -22 0 -6 -12 -38 -27 -70 -15 -33 -28 -61 -29 -64 -1 -9 -60 -145
-139 -325 -33 -75 -77 -178 -80 -185 -3 -10 -52 -123 -82 -190 -50 -111 -61
-140 -55 -140 4 0 2 -4 -3 -8 -13 -9 -18 -21 -108 -232 -25 -58 -66 -149 -91
-203 -25 -55 -46 -101 -46 -103 0 -11 -175 -362 -189 -378 -12 -15 -13 -18 -1
-11 12 7 12 5 -1 -11 -9 -10 -37 -57 -61 -104 -77 -147 -120 -224 -134 -241
-8 -8 -14 -18 -14 -21 0 -6 -122 -208 -150 -248 -6 -8 -31 -46 -55 -83 -55
-84 -128 -190 -136 -197 -3 -3 -26 -34 -52 -70 -25 -36 -58 -78 -72 -95 -14
-16 -42 -50 -63 -74 -93 -109 -163 -164 -225 -177 -53 -11 -119 -4 -156 16
-12 6 -21 8 -21 5 0 -5 -141 65 -150 75 -3 3 -30 22 -61 43 -80 54 -203 175
-364 362 -33 38 -70 80 -83 93 -12 12 -22 25 -22 27 0 3 -9 15 -20 28 -28 30
-36 39 -111 132 -35 44 -67 82 -71 83 -5 2 -8 8 -8 14 0 5 -6 15 -12 22 -7 7
-22 25 -33 41 -11 15 -28 36 -37 47 -10 10 -18 20 -18 23 0 4 -32 49 -83 116
-41 53 -117 169 -117 178 0 6 -4 11 -8 11 -5 0 -15 12 -23 28 -8 15 -16 29
-19 32 -13 12 -110 171 -110 180 0 6 -4 10 -10 10 -5 0 -10 4 -10 10 0 5 -18
39 -40 75 -22 36 -40 67 -40 69 0 2 -36 65 -80 141 -44 76 -80 139 -80 140 0
2 -39 72 -87 157 -49 84 -95 167 -103 183 -8 17 -18 32 -21 35 -3 3 -21 34
-40 70 -19 36 -36 67 -39 70 -3 3 -11 16 -17 30 -7 14 -25 48 -41 75 -16 28
-41 70 -54 95 -14 25 -40 70 -57 100 -18 30 -35 63 -38 73 -3 9 -9 17 -14 17
-5 0 -9 5 -9 11 0 7 -19 44 -41 83 -46 78 -58 149 -34 196 11 22 114 161 145
198 6 6 7 12 3 12 -4 0 0 5 10 11 9 6 15 14 12 20 -4 5 -1 9 6 9 7 0 9 3 6 7
-4 3 -1 16 6 27 35 54 59 156 58 256 0 157 -58 310 -161 424 -106 117 -246
178 -415 179 -153 1 -276 -54 -382 -171 -23 -26 -48 -58 -55 -72 -7 -14 -16
-27 -19 -30 -12 -10 -39 -70 -32 -70 5 0 3 -4 -3 -8 -12 -8 -47 -92 -39 -92 3
0 1 -9 -5 -20 -23 -44 -29 -211 -10 -292 23 -96 86 -200 162 -266 20 -18 78
-58 130 -88 95 -57 159 -114 202 -177 25 -36 42 -76 38 -89 -1 -5 2 -8 7 -8 9
0 27 -59 37 -120 3 -19 11 -66 19 -105 15 -79 26 -143 39 -225 3 -19 8 -46 10
-60 3 -14 7 -43 11 -64 3 -21 8 -48 10 -60 3 -12 7 -37 9 -56 5 -35 28 -171
46 -265 5 -27 12 -67 15 -89 3 -21 7 -41 9 -45 2 -3 7 -28 10 -56 4 -27 9 -57
11 -65 5 -17 15 -75 19 -105 2 -11 6 -29 9 -40 3 -11 9 -36 12 -55 3 -19 15
-80 27 -135 11 -55 22 -109 23 -120 1 -11 5 -27 8 -35 4 -8 9 -28 11 -45 6
-41 14 -82 26 -130 5 -22 19 -80 30 -130 18 -79 25 -106 36 -150 1 -5 4 -21 7
-35 5 -24 43 -175 53 -215 3 -11 7 -27 9 -35 1 -8 5 -22 8 -30 8 -23 48 -173
50 -190 2 -8 5 -19 8 -25 4 -5 10 -28 14 -50 4 -22 10 -44 13 -50 4 -5 7 -14
7 -20 0 -5 9 -37 19 -70 10 -33 20 -67 21 -75 2 -8 16 -55 30 -105 14 -49 28
-97 30 -105 2 -8 17 -60 34 -115 17 -55 30 -100 30 -100 0 0 2 -7 5 -15 2 -8
19 -67 36 -130 18 -63 34 -122 37 -130 2 -8 4 -17 5 -20 0 -3 4 -12 9 -21 4
-9 10 -27 13 -40 3 -13 17 -62 31 -109 15 -47 28 -89 29 -95 6 -24 30 -105 46
-155 31 -98 54 -175 55 -185 1 -10 42 -148 52 -175 3 -8 7 -19 8 -25 2 -5 13
-44 26 -85 12 -41 23 -77 24 -80 1 -3 4 -12 7 -20 7 -18 33 -103 34 -110 0 -3
6 -24 13 -48 l12 -42 3895 0 c4193 0 3931 -3 3983 49 12 12 21 22 20 24 0 2 8
28 18 55 3 9 7 22 8 27 7 28 51 171 77 250 17 50 32 97 33 105 1 8 5 22 9 30
11 26 68 204 71 220 1 8 6 24 10 35 19 54 28 82 71 235 25 91 48 172 50 180 2
8 19 76 39 150 20 74 37 142 39 150 2 8 9 35 16 60 7 25 14 54 16 65 2 11 10
45 18 75 8 30 17 66 20 80 3 14 16 68 29 120 19 76 50 204 63 265 1 6 9 37 17
70 13 51 24 104 33 150 1 6 3 12 4 15 2 5 5 21 13 60 3 14 15 64 26 112 11 47
23 99 25 115 6 32 50 229 71 318 8 33 17 74 20 90 12 61 16 80 21 97 3 10 7
28 10 40 5 30 8 41 39 178 14 63 27 124 29 135 2 11 16 72 30 135 15 63 29
125 32 138 3 13 18 81 35 150 31 131 36 149 44 192 3 14 23 95 46 180 22 85
41 164 43 175 2 11 4 20 6 20 1 0 3 9 5 20 2 11 13 58 25 105 12 47 24 96 27
110 9 45 11 55 13 55 2 0 7 20 15 60 11 51 40 109 72 140 30 30 52 42 165 85
31 12 71 36 87 53 52 55 91 102 91 110 0 5 8 21 18 35 19 28 51 103 58 135 2
10 6 27 9 37 22 68 22 277 1 338 -8 23 -15 45 -15 48 0 2 -14 35 -33 71 -33
67 -157 203 -183 203 -8 0 -15 4 -17 8 -6 15 -114 60 -173 72 -62 13 -175 19
-175 10 0 -4 -10 -6 -22 -7 -74 -2 -209 -61 -283 -125 -38 -31 -98 -96 -109
-116 -5 -10 -13 -19 -17 -22 -4 -3 -21 -32 -37 -65 -116 -236 -77 -477 109
-677 64 -68 79 -89 89 -130 11 -39 12 -52 8 -92 -1 -17 -242 -502 -304 -614
-13 -23 -47 -86 -75 -140 -29 -53 -55 -101 -59 -107 -8 -10 -30 -49 -72 -125
-11 -19 -30 -53 -44 -75 -13 -22 -27 -47 -31 -55 -4 -8 -29 -51 -57 -95 -27
-44 -57 -96 -67 -116 -10 -19 -25 -41 -33 -49 -9 -7 -16 -17 -16 -21 0 -5 -22
-43 -50 -85 -27 -41 -50 -77 -50 -80 0 -5 -203 -305 -263 -389 -70 -96 -220
-299 -227 -305 -3 -3 -25 -32 -50 -65 -25 -33 -50 -64 -56 -70 -6 -5 -28 -32
-50 -60 -21 -27 -48 -59 -59 -71 -11 -12 -34 -39 -52 -60 -112 -137 -238 -260
-358 -351 -61 -46 -220 -146 -235 -148 -3 0 -16 -7 -30 -15 -14 -7 -26 -13
-27 -12 -2 1 -6 2 -10 1 -67 -8 -128 5 -173 36 -30 21 -178 164 -235 229 -24
26 -105 135 -105 141 0 3 -5 11 -11 18 -39 45 -349 539 -349 557 0 6 -4 10 -8
10 -4 0 -13 12 -19 28 -7 15 -26 52 -44 82 -42 72 -185 355 -228 450 -18 41
-46 102 -61 135 -47 99 -122 267 -125 275 -1 3 -16 36 -33 74 -18 38 -32 70
-32 72 0 2 -11 27 -24 56 -25 56 -37 82 -111 248 -45 102 -60 135 -89 203 -14
32 -36 82 -74 167 -11 25 -43 99 -72 165 -28 66 -60 138 -70 160 -10 22 -32
74 -50 115 -18 41 -41 95 -52 120 -11 25 -28 63 -38 85 -10 22 -39 90 -65 150
-26 61 -53 124 -60 140 -7 17 -30 71 -50 120 -37 93 -43 106 -68 165 -15 35
-41 121 -40 130 1 3 4 21 7 40 3 19 10 36 15 38 6 2 11 9 11 15 0 13 49 58
105 95 22 15 55 42 74 60 19 17 38 32 43 32 4 0 8 7 8 15 0 8 4 15 9 15 25 0
143 222 157 294 2 11 9 44 16 71 13 56 16 258 4 320 -14 69 -26 116 -35 130
-3 6 -6 12 -6 16 0 3 -16 36 -35 74 -34 69 -134 180 -208 235 -19 14 -40 30
-47 37 -7 7 -15 9 -19 6 -3 -4 -6 -2 -6 3 0 5 -17 18 -37 29 -21 11 -41 24
-44 28 -3 5 -10 9 -15 9 -5 0 -19 4 -32 9 -13 5 -29 9 -36 9 -7 0 -16 3 -20 7
-3 4 -14 9 -24 11 -20 4 -220 10 -224 6z"/>
<path d="M3125 8083 c-210 -37 -359 -160 -416 -343 -25 -79 -26 -198 -4 -264
24 -71 53 -136 67 -150 7 -7 27 -30 43 -51 17 -21 35 -43 41 -49 40 -42 78
-196 52 -212 -5 -3 -6 -9 -4 -13 6 -9 -98 -217 -115 -231 -4 -3 -17 -25 -29
-50 -12 -25 -25 -47 -29 -50 -3 -3 -19 -30 -35 -60 -16 -30 -32 -57 -35 -60
-4 -3 -12 -16 -19 -30 -7 -14 -23 -43 -37 -65 -13 -22 -27 -47 -31 -55 -7 -13
-69 -119 -94 -160 -142 -232 -181 -322 -160 -370 26 -58 87 -149 142 -213 15
-18 28 -37 28 -44 0 -6 3 -13 8 -15 4 -1 27 -28 52 -58 25 -30 54 -66 65 -79
80 -97 261 -282 268 -274 3 2 8 -4 11 -14 6 -17 43 -49 160 -136 28 -21 59
-45 69 -53 9 -7 22 -14 27 -14 6 0 10 -4 10 -8 0 -10 79 -37 98 -33 6 1 12 -3
12 -9 0 -6 5 -8 10 -5 6 4 22 9 37 11 77 14 97 31 464 394 255 252 283 288
293 371 5 46 -21 136 -55 192 -16 26 -29 52 -29 57 0 6 -4 10 -10 10 -5 0 -10
4 -10 9 0 6 -17 38 -37 73 -21 35 -36 66 -35 71 1 4 -1 7 -6 7 -4 0 -16 17
-27 38 -11 20 -31 55 -45 77 -14 22 -31 51 -38 65 -6 14 -16 32 -22 40 -13 20
-88 147 -112 188 -10 17 -28 49 -39 70 -12 20 -43 74 -70 120 -27 45 -49 85
-49 89 0 4 -6 14 -14 22 -7 9 -27 41 -44 71 -16 30 -40 74 -53 98 -13 24 -29
53 -36 64 -12 23 -18 16 134 174 23 23 49 58 60 76 10 18 23 40 29 48 11 15
33 83 43 130 7 36 6 190 -1 225 -33 154 -116 269 -240 331 -37 19 -70 34 -73
34 -3 -1 -27 2 -53 5 -77 10 -96 12 -117 8z"/>
<path d="M8098 8085 c-2 -2 -15 -6 -28 -8 -131 -25 -283 -144 -348 -272 -28
-56 -48 -140 -47 -200 1 -57 23 -164 39 -184 5 -7 11 -19 12 -26 4 -27 68
-109 145 -186 69 -70 79 -84 79 -115 0 -33 -45 -130 -130 -279 -13 -22 -35
-62 -50 -90 -38 -70 -71 -129 -114 -205 -20 -36 -42 -76 -49 -90 -6 -14 -14
-27 -17 -30 -4 -3 -16 -25 -28 -50 -31 -61 -66 -124 -73 -130 -3 -3 -18 -30
-33 -60 -36 -71 -60 -114 -67 -120 -3 -3 -13 -23 -23 -45 -10 -22 -24 -47 -31
-55 -27 -31 -21 -66 20 -126 42 -62 172 -235 203 -269 10 -11 40 -47 67 -80
96 -115 375 -384 461 -445 57 -40 110 -74 119 -77 102 -28 172 -17 237 35 48
39 555 554 618 628 60 70 59 122 -6 242 -65 120 -68 126 -75 132 -3 3 -8 10
-10 15 -11 27 -124 220 -131 223 -4 2 -8 8 -8 14 0 5 -9 23 -21 39 -11 16 -17
29 -12 29 4 0 3 4 -3 8 -6 4 -22 27 -36 52 -36 65 -61 108 -97 168 -17 29 -31
57 -31 62 0 6 -4 10 -10 10 -5 0 -9 3 -8 8 1 4 -9 27 -24 52 -175 302 -207
367 -204 415 4 54 14 74 52 113 18 17 31 32 28 32 -3 0 5 11 18 24 60 62 132
172 144 221 13 56 16 77 15 120 -3 80 -5 105 -13 105 -4 0 -6 8 -5 18 1 25
-46 123 -84 174 -39 51 -124 124 -171 146 -18 9 -36 20 -39 25 -3 5 -8 8 -10
7 -2 -1 -24 3 -49 10 -42 11 -165 22 -172 15z"/>
<path d="M1834 2360 l-40 -5 0 -587 0 -587 161 1 c89 1 167 -2 173 -6 7 -4 12
-4 12 1 0 10 213 9 229 -1 6 -4 11 -4 11 1 0 10 213 9 229 -1 6 -4 11 -4 11 1
0 10 213 9 229 -1 6 -4 11 -4 11 1 0 10 213 9 229 -1 6 -4 11 -4 11 1 0 10
213 9 229 -1 6 -4 11 -4 11 1 0 10 213 9 229 -1 6 -4 11 -4 11 1 0 10 213 9
229 -1 6 -4 11 -4 11 1 0 10 213 9 229 -1 6 -4 11 -4 11 1 0 10 213 9 229 -1
6 -4 11 -4 11 1 0 10 213 9 229 -1 6 -4 11 -4 11 1 0 10 213 9 229 -1 6 -4 11
-4 11 1 0 10 213 9 229 -1 6 -4 11 -4 11 1 0 10 213 9 229 -1 6 -4 11 -4 11 1
0 10 213 9 229 -1 6 -4 11 -4 11 1 0 10 213 9 229 -1 6 -4 11 -4 11 1 0 10
213 9 229 -1 6 -4 11 -4 11 1 0 10 213 9 229 -1 6 -4 11 -4 11 1 0 10 213 9
229 -1 6 -4 11 -4 11 1 0 10 213 9 229 -1 6 -4 11 -4 11 1 0 10 213 9 229 -1
6 -4 11 -4 11 1 0 10 213 9 229 -1 6 -4 11 -4 11 1 0 10 213 9 229 -1 6 -4 11
-4 11 1 0 10 213 9 229 -1 6 -4 11 -4 11 1 0 10 213 9 229 -1 6 -4 11 -4 11 1
0 10 213 9 229 -1 6 -4 11 -4 11 1 0 10 213 9 229 -1 6 -4 11 -4 11 1 0 10
213 9 229 -1 6 -4 11 -4 11 1 0 10 213 9 229 -1 6 -4 11 -4 11 1 0 10 213 9
229 -1 6 -4 11 -4 11 1 0 10 213 9 229 -1 6 -4 11 -4 11 1 0 10 213 9 229 -1
6 -4 11 -4 11 1 0 4 20 7 45 5 l44 -4 1 591 c0 558 -1 591 -17 592 -106 3
-7789 3 -7819 -1z"/>
</g>
</svg>
