<svg width="739" height="589" viewBox="0 0 739 589" fill="none" xmlns="http://www.w3.org/2000/svg">
<path d="M113.976 495.565C110.651 484.719 107.326 473.997 104.125 463.275C93.1659 426.179 81.8375 389.206 71.6174 351.987C60.9047 312.919 52.901 273.235 46.0055 233.304C43.4197 218.145 41.0801 202.863 38.248 187.704C36.1548 176.612 30.3675 167.862 20.1473 162.809C-1.1549 152.21 -4.72579 129.657 5.49435 110.431C11.7742 98.5997 21.3787 90.9586 35.2928 90.4657C53.1473 89.8494 68.1697 101.927 72.4794 119.797C75.3114 131.752 73.4644 142.967 66.1995 153.073C63.9831 156.031 61.6435 159.112 59.304 162.193C56.2256 166.137 55.7331 170.204 58.3189 174.764C75.3114 204.835 92.0577 235.153 109.296 265.101C128.259 297.76 151.408 327.462 177.267 354.821C183.916 361.846 192.043 367.146 200.908 370.843C208.05 373.801 214.946 372.938 220.364 367.515C225.658 362.216 230.584 356.547 235.017 350.508C258.905 318.465 277.498 283.341 293.505 246.738C314.069 199.905 334.14 152.827 354.21 105.871C357.535 97.9835 358.643 99.3391 348.916 94.4094C333.77 86.7684 326.136 74.1976 322.319 58.5458C318.871 44.2496 322.811 31.5556 331.8 20.3405C342.02 7.89299 354.703 -0.241035 371.326 0.00545019C383.639 0.251936 393.244 6.90705 402.11 14.9178C423.781 34.7599 418.979 77.4019 394.968 92.0678C394.229 92.5608 393.49 93.0537 392.751 93.67C385.979 98.8462 384.625 102.913 387.826 110.924C393.244 124.234 398.785 137.544 404.572 150.608C422.673 191.771 440.404 233.058 459.244 273.851C471.311 300.102 486.457 324.873 502.833 348.783C507.636 355.807 513.915 361.723 520.072 367.762C526.106 373.678 533.124 374.047 540.389 369.857C551.225 363.695 561.199 356.3 569.695 346.934C605.404 307.25 633.971 262.636 659.337 215.927C666.356 202.986 672.882 189.676 679.654 176.489C683.594 168.602 682.979 164.411 676.945 157.879C671.404 151.841 666.602 145.432 664.878 137.298C661.061 118.688 672.512 99.0927 690.982 92.684C714.501 84.55 738.512 101.804 738.882 126.822C739.005 139.763 735.064 150.731 726.322 159.975C724.352 162.07 721.273 163.549 718.441 164.288C711.669 166.013 706.99 169.834 705.389 176.736C698.863 203.356 691.967 229.853 686.057 256.597C673.005 315.014 661.061 373.801 644.684 431.355C640.251 447.13 634.833 462.659 629.908 478.434C629.046 481.269 628.184 484.103 627.445 487.061C625.844 492.977 622.766 495.565 616.609 495.565C603.434 495.688 590.135 495.565 576.837 495.565C558.244 495.565 539.774 495.565 521.18 495.565C387.333 495.565 253.61 495.565 119.763 495.565C117.67 495.565 115.946 495.565 113.976 495.565Z" fill="white"/>
<path d="M113.371 589C113.371 563.242 113.371 537.977 113.371 512.343C283.666 512.343 453.837 512.343 624.255 512.343C624.255 537.854 624.255 563.365 624.255 589C453.837 589 283.789 589 113.371 589Z" fill="white"/>
<path d="M557.728 174.768C557.605 180.19 554.773 186.845 549.848 192.761C547.878 195.103 545.784 197.567 543.691 199.786C539.997 203.73 539.751 208.043 542.336 212.603C547.878 222.463 553.295 232.322 558.836 242.058C567.333 256.847 575.952 271.39 584.448 286.179C589.127 294.436 588.881 297.887 582.478 304.542C570.657 316.743 558.836 328.944 546.646 340.899C539.751 347.677 531.624 347.677 523.866 341.638C503.549 326.11 486.926 307.13 472.519 286.179C471.288 284.454 471.288 283.221 472.273 281.249C485.079 258.203 497.885 235.033 510.691 211.864C514.139 205.578 513.769 203.237 508.228 198.553C496.777 188.817 492.221 175.507 496.284 163.183C500.84 149.38 516.601 139.027 529.777 141.246C545.538 143.957 557.728 157.637 557.728 174.768Z" fill="white"/>
<path d="M213.006 206.914C219.286 217.76 225.935 229.345 232.584 240.806C240.957 255.102 249.454 269.399 257.704 283.818C263.122 293.308 262.875 299.716 255.364 307.481C243.789 319.435 231.845 330.897 219.778 342.235C213.745 347.904 206.726 347.288 199.954 342.482C179.637 328.185 163.998 309.452 149.838 289.241C146.39 284.311 146.267 280.49 149.222 275.561C160.304 256.951 171.017 238.218 181.976 219.485C188.256 208.763 187.64 202.478 179.267 193.235C168.801 181.526 168.678 163.533 179.021 152.071C189.98 139.994 207.095 137.652 219.409 146.525C233.939 157.001 236.155 181.773 223.842 195.453C220.271 199.15 216.823 202.847 213.006 206.914Z" fill="white"/>
</svg>
